<svg width="191.1856" height="59.3911" xmlns="http://www.w3.org/2000/svg" xml:space="preserve" enable-background="new 0 0 191.1856 59.3911" version="1.1">

 <g>
  <title>Layer 1</title>
  <g id="svg_1">
   <g id="svg_2">
    <path id="svg_3" d="m59.3867,16.4501c-0.0035,-0.5973 -0.0101,-1.1943 -0.0266,-1.7923c-0.0348,-1.3008 -0.1117,-2.6134 -0.3429,-3.9003c-0.2346,-1.3069 -0.6181,-2.5221 -1.2225,-3.7093c-0.5933,-1.1659 -1.3689,-2.2328 -2.2941,-3.158c-0.925,-0.9252 -1.9919,-1.7007 -3.1583,-2.2943c-1.1862,-0.6037 -2.4016,-0.9871 -3.7073,-1.2217c-1.2876,-0.2319 -2.6002,-0.3083 -3.902,-0.3435c-0.5977,-0.0162 -1.1948,-0.023 -1.7923,-0.0267c-0.7092,-0.004 -1.4189,-0.004 -2.1279,-0.004l-15.7216,0l-6.5131,0c-0.7097,0 -1.4186,0 -2.1276,0.0041c-0.5977,0.0037 -1.1955,0.0105 -1.7923,0.0267c-0.3254,0.0088 -0.6515,0.0202 -0.9778,0.0359c-0.9788,0.0472 -1.9591,0.1337 -2.9243,0.3076c-0.9793,0.176 -1.9079,0.4356 -2.8113,0.8091c-0.3011,0.1244 -0.5995,0.2616 -0.8961,0.4125c-0.8748,0.4452 -1.6938,0.9927 -2.4387,1.6289c-0.2483,0.2121 -0.4884,0.434 -0.7196,0.6653c-0.9254,0.9252 -1.701,1.9921 -2.2943,3.158c-0.6044,1.1872 -0.9874,2.4024 -1.2222,3.7093c-0.231,1.2869 -0.3078,2.5995 -0.3428,3.9003c-0.0164,0.598 -0.0233,1.195 -0.0272,1.7923c-0.0045,0.7094 -0.0039,1.4189 -0.0039,2.1281l0,9.6819l0,12.5525c0,0.7099 -0.0007,1.4187 0.0039,2.1286c0.0039,0.5973 0.0108,1.1943 0.0272,1.7913c0.035,1.3015 0.1117,2.6144 0.3428,3.9007c0.2348,1.3065 0.6178,2.5228 1.2222,3.7097c0.5933,1.1662 1.3689,2.2328 2.2943,3.1576c0.9247,0.9256 1.9919,1.701 3.1584,2.295c1.1863,0.6038 2.4016,0.9867 3.7076,1.2213c1.2868,0.2316 2.6004,0.3086 3.9019,0.3434c0.5968,0.0159 1.1946,0.023 1.7923,0.0264c0.709,0.0051 1.4179,0.0044 2.1276,0.0044l22.2346,0c0.709,0 1.4187,0.0007 2.1278,-0.0044c0.5975,-0.0034 1.1946,-0.0105 1.7923,-0.0264c1.3018,-0.0348 2.6144,-0.1119 3.902,-0.3434c1.3057,-0.2346 2.5211,-0.6176 3.7073,-1.2213c1.1664,-0.5939 2.2333,-1.3694 3.1583,-2.295c0.9252,-0.9249 1.7009,-1.9914 2.2941,-3.1576c0.6044,-1.1869 0.9879,-2.4031 1.2225,-3.7097c0.2312,-1.2863 0.3081,-2.5992 0.3429,-3.9007c0.0164,-0.597 0.023,-1.1939 0.0266,-1.7913c0.0046,-0.7099 0.0042,-1.4187 0.0042,-2.1286l0,-22.2344c0.0001,-0.7092 0.0004,-1.4187 -0.0041,-2.128z" fill="#F05138"/>
    <path id="svg_4" d="m47.0606,36.6607c-0.0014,-0.0018 -0.0027,-0.0031 -0.0042,-0.0048c0.0657,-0.2236 0.1335,-0.4458 0.191,-0.675c2.465,-9.8209 -3.5511,-21.4319 -13.7316,-27.5454c4.4613,6.0479 6.4339,13.3733 4.6813,19.7795c-0.1563,0.5714 -0.3442,1.1198 -0.5519,1.6528c-0.2254,-0.1481 -0.5094,-0.3162 -0.8908,-0.5265c0,0 -10.1269,-6.2527 -21.1028,-17.3122c-0.288,-0.2903 5.8528,8.777 12.8219,16.1399c-3.2834,-1.8427 -12.4338,-8.5004 -18.2266,-13.8023c0.7117,1.1869 1.5582,2.3298 2.4887,3.4301c4.8375,6.1349 11.1462,13.7044 18.7043,19.5169c-5.3104,3.2498 -12.8141,3.5025 -20.2852,0.0034c-1.8479,-0.866 -3.5851,-1.9109 -5.1932,-3.0981c3.1625,5.0585 8.0332,9.4229 13.9613,11.9708c7.0695,3.0381 14.0996,2.8321 19.3356,0.0498l-0.0041,0.006c0.0239,-0.0151 0.0543,-0.0316 0.0791,-0.0469c0.215,-0.1156 0.4284,-0.2333 0.6371,-0.3576c2.5157,-1.3058 7.4847,-2.6306 10.1518,2.5588c0.6532,1.27 2.0412,-5.4604 -3.0617,-11.7392z" fill="#FFFFFF"/>
   </g>
  </g>
  <g stroke="null" id="XMLID_1_">
   <g stroke="null" id="svg_5">
    <path stroke="null" id="svg_6" d="m69.61742,25.09567c0.35066,3.20894 3.32056,5.31282 7.44508,5.31282c3.91881,0 6.74413,-2.10388 6.74413,-5.015c0,-2.50801 -1.71159,-4.03892 -5.65111,-5.05862l-3.81527,-0.99883c-5.4859,-1.40287 -7.96095,-3.95356 -7.96095,-8.16133c0,-5.18572 4.39288,-8.77791 10.64223,-8.77791c6.06299,0 10.3735,3.61307 10.51799,8.82059l-4.02144,0c-0.3097,-3.18807 -2.82578,-5.14398 -6.59963,-5.14398c-3.73335,0 -6.3318,1.97678 -6.3318,4.86703c0,2.25279 1.60897,3.59219 5.56874,4.6337l3.17599,0.84992c6.14588,1.55186 8.66189,4.01711 8.66189,8.45922c0,5.6534 -4.35192,9.20291 -11.2815,9.20291c-6.43443,0 -10.82732,-3.52864 -11.15727,-8.99038l4.06293,0l0,-0.00015z"/>
    <path stroke="null" id="svg_7" d="m113.53957,33.57577l-4.04259,0l-4.72283,-16.96019l-0.08238,0l-4.70213,16.96019l-4.04214,0l-5.98106,-22.2104l3.91835,0l4.16593,17.83192l0.08282,0l4.70213,-17.83192l3.79456,0l4.74355,17.83192l0.08283,0l4.166,-17.83192l3.87695,0l-5.95998,22.2104z"/>
    <path stroke="null" id="svg_8" d="m122.10986,5.3932c0,-1.33839 1.07277,-2.42257 2.37204,-2.42257c1.31997,0 2.39229,1.08418 2.39229,2.42257c0,1.33932 -1.07232,2.44446 -2.39229,2.44446c-1.29927,0 -2.37204,-1.10506 -2.37204,-2.44446zm0.41279,5.97217l3.93906,0l0,22.2104l-3.93906,0l0,-22.2104z"/>
    <path stroke="null" id="svg_9" d="m152.18559,14.63879l0,-3.2735l-4.166,0l0,-5.31282l-3.91881,0l0,5.31282l-3.1967,0l-4.33302,0l0,-1.95497c0.02025,-1.97678 0.76299,-2.80583 2.53679,-2.80583c0.57707,0 1.15469,0.06449 1.62921,0.14891l0,-3.18807c-0.7014,-0.10623 -1.34068,-0.16978 -2.08296,-0.16978c-4.20741,0 -5.98105,1.807 -5.98105,5.95122l0,2.01852l-3.01079,0l0,3.2735l3.01079,0l0,18.93689l3.91833,0l0,-18.93689l4.31277,0l3.1967,0l0,13.11372c0,4.2932 1.58826,5.95028 5.71278,5.95028c0.88684,0 1.89749,-0.06355 2.35132,-0.16978l0,-3.31517c-0.2683,0.04268 -1.05214,0.10623 -1.48511,0.10623c-1.83539,0 -2.66011,-0.8926 -2.66011,-2.89025l0,-12.79503l4.16585,0z"/>
   </g>
  </g>
  <text font-weight="normal" opacity="0.75" transform="matrix(0.861138 0 0 0.842287 -24.9226 13.5806)" stroke="#000" xml:space="preserve" text-anchor="start" font-family="'Lexend'" font-size="24" id="svg_10" y="47.19556" x="107.43152" stroke-width="0" fill="#000000">en Català</text>
 </g>
</svg>